<svg width="2602" height="1565" xmlns="http://www.w3.org/2000/svg" xmlns:xlink="http://www.w3.org/1999/xlink" xml:space="preserve" overflow="hidden"><defs><clipPath id="clip0"><rect x="2006" y="205" width="2602" height="1565"/></clipPath><clipPath id="clip1"><rect x="2007" y="206" width="2598" height="1561"/></clipPath><clipPath id="clip2"><rect x="2007" y="206" width="2598" height="1561"/></clipPath><clipPath id="clip3"><rect x="2007" y="206" width="2598" height="1561"/></clipPath><clipPath id="clip4"><rect x="2007" y="206" width="2598" height="1561"/></clipPath><clipPath id="clip5"><rect x="2007" y="206" width="2598" height="1561"/></clipPath><clipPath id="clip6"><rect x="2232" y="379" width="2272" height="1168"/></clipPath><clipPath id="clip7"><rect x="2007" y="206" width="2598" height="1561"/></clipPath><clipPath id="clip8"><rect x="2007" y="206" width="2598" height="1561"/></clipPath><clipPath id="clip9"><rect x="2007" y="206" width="2598" height="1561"/></clipPath><clipPath id="clip10"><rect x="2007" y="206" width="2598" height="1561"/></clipPath><clipPath id="clip11"><rect x="2007" y="206" width="2598" height="1561"/></clipPath><clipPath id="clip12"><rect x="2007" y="206" width="2598" height="1561"/></clipPath><clipPath id="clip13"><rect x="2007" y="206" width="2598" height="1561"/></clipPath><clipPath id="clip14"><rect x="2007" y="206" width="2598" height="1561"/></clipPath><clipPath id="clip15"><rect x="2007" y="206" width="2598" height="1561"/></clipPath><clipPath id="clip16"><rect x="2007" y="206" width="2598" height="1561"/></clipPath><clipPath id="clip17"><rect x="2007" y="206" width="2598" height="1561"/></clipPath><clipPath id="clip18"><rect x="2007" y="206" width="2598" height="1561"/></clipPath><clipPath id="clip19"><rect x="2007" y="206" width="2598" height="1561"/></clipPath><clipPath id="clip20"><rect x="2007" y="206" width="2598" height="1561"/></clipPath><clipPath id="clip21"><rect x="2007" y="206" width="2598" height="1561"/></clipPath><clipPath id="clip22"><rect x="2007" y="206" width="2598" height="1561"/></clipPath><clipPath id="clip23"><rect x="2007" y="206" width="2598" height="1561"/></clipPath><clipPath id="clip24"><rect x="2007" y="206" width="2598" height="1561"/></clipPath><clipPath id="clip25"><rect x="2007" y="206" width="2598" height="1561"/></clipPath><clipPath id="clip26"><rect x="2007" y="206" width="2598" height="1561"/></clipPath><clipPath id="clip27"><rect x="2007" y="206" width="2598" height="1561"/></clipPath><clipPath id="clip28"><rect x="2007" y="206" width="2598" height="1561"/></clipPath><clipPath id="clip29"><rect x="2007" y="206" width="2598" height="1561"/></clipPath></defs><g clip-path="url(#clip0)" transform="translate(-2006 -205)"><rect x="2007" y="206" width="2599" height="1562" fill="#FFFFFF"/><g clip-path="url(#clip1)"><path d="M2232.5 1401.55 4504.5 1401.55M2232.5 1255.54 4504.5 1255.54M2232.5 1109.54 4504.5 1109.54M2232.5 963.532 4504.5 963.532M2232.5 817.527 4504.5 817.527M2232.5 671.522 4504.5 671.522M2232.5 525.517 4504.5 525.517M2232.5 379.5 4504.5 379.5" stroke="#D9D9D9" stroke-width="3.4375" stroke-linejoin="round" stroke-miterlimit="10" fill="none"/></g><g clip-path="url(#clip2)"><path d="M2610.59 379.5 2610.59 1547.5M2989.6 379.5 2989.6 1547.5M3368.61 379.5 3368.61 1547.5M3746.62 379.5 3746.62 1547.5M4125.64 379.5 4125.64 1547.5M4504.5 379.5 4504.5 1547.5" stroke="#D9D9D9" stroke-width="3.4375" stroke-linejoin="round" stroke-miterlimit="10" fill="none"/></g><g clip-path="url(#clip3)"><path d="M0 0 0.000360892 1168" stroke="#BFBFBF" stroke-width="3.4375" stroke-linejoin="round" stroke-miterlimit="10" fill="none" fill-rule="evenodd" transform="matrix(1 0 0 -1 2232.5 1547.5)"/></g><g clip-path="url(#clip4)"><path d="M2232.5 1547.5 4504.5 1547.5" stroke="#BFBFBF" stroke-width="3.4375" stroke-linejoin="round" stroke-miterlimit="10" fill="none" fill-rule="evenodd"/></g><g clip-path="url(#clip5)"><path d="M2362 1172.75C2362 1178.82 2357.07 1183.75 2351 1183.75 2344.92 1183.75 2340 1178.82 2340 1172.75 2340 1166.67 2344.92 1161.75 2351 1161.75 2357.07 1161.75 2362 1166.67 2362 1172.75Z" stroke="#4472C4" stroke-width="3.4375" stroke-linejoin="round" stroke-miterlimit="10" fill="#4472C4"/><path d="M2441 1126.75C2441 1132.82 2436.07 1137.75 2430 1137.75 2423.92 1137.75 2419 1132.82 2419 1126.75 2419 1120.67 2423.92 1115.75 2430 1115.75 2436.07 1115.75 2441 1120.67 2441 1126.75Z" stroke="#4472C4" stroke-width="3.4375" stroke-linejoin="round" stroke-miterlimit="10" fill="#4472C4"/><path d="M2380 1075.75C2380 1081.82 2375.07 1086.75 2369 1086.75 2362.92 1086.75 2358 1081.82 2358 1075.75 2358 1069.67 2362.92 1064.75 2369 1064.75 2375.07 1064.75 2380 1069.67 2380 1075.75Z" stroke="#4472C4" stroke-width="3.4375" stroke-linejoin="round" stroke-miterlimit="10" fill="#4472C4"/><path d="M2362 1020.75C2362 1026.82 2357.07 1031.75 2351 1031.75 2344.92 1031.75 2340 1026.82 2340 1020.75 2340 1014.67 2344.92 1009.75 2351 1009.75 2357.07 1009.75 2362 1014.67 2362 1020.75Z" stroke="#4472C4" stroke-width="3.4375" stroke-linejoin="round" stroke-miterlimit="10" fill="#4472C4"/><path d="M2418 999.75C2418 1005.82 2413.07 1010.75 2407 1010.75 2400.92 1010.75 2396 1005.82 2396 999.75 2396 993.675 2400.92 988.75 2407 988.75 2413.07 988.75 2418 993.675 2418 999.75Z" stroke="#4472C4" stroke-width="3.4375" stroke-linejoin="round" stroke-miterlimit="10" fill="#4472C4"/><path d="M2368 802.75C2368 808.825 2363.07 813.75 2357 813.75 2350.92 813.75 2346 808.825 2346 802.75 2346 796.675 2350.92 791.75 2357 791.75 2363.07 791.75 2368 796.675 2368 802.75Z" stroke="#4472C4" stroke-width="3.4375" stroke-linejoin="round" stroke-miterlimit="10" fill="#4472C4"/><path d="M4417 464.75C4417 470.825 4412.07 475.749 4406 475.749 4399.92 475.749 4395 470.825 4395 464.75 4395 458.675 4399.92 453.75 4406 453.75 4412.07 453.75 4417 458.675 4417 464.75Z" stroke="#4472C4" stroke-width="3.4375" stroke-linejoin="round" stroke-miterlimit="10" fill="#4472C4"/><path d="M2427 763.75C2427 769.825 2422.07 774.749 2416 774.749 2409.92 774.749 2405 769.825 2405 763.75 2405 757.675 2409.92 752.75 2416 752.75 2422.07 752.75 2427 757.675 2427 763.75Z" stroke="#4472C4" stroke-width="3.4375" stroke-linejoin="round" stroke-miterlimit="10" fill="#4472C4"/><path d="M2334 904.75C2334 910.825 2329.07 915.749 2323 915.749 2316.92 915.749 2312 910.825 2312 904.75 2312 898.675 2316.92 893.75 2323 893.75 2329.07 893.75 2334 898.675 2334 904.75Z" stroke="#4472C4" stroke-width="3.4375" stroke-linejoin="round" stroke-miterlimit="10" fill="#4472C4"/><path d="M2302 1118.75C2302 1124.82 2297.07 1129.75 2291 1129.75 2284.92 1129.75 2280 1124.82 2280 1118.75 2280 1112.67 2284.92 1107.75 2291 1107.75 2297.07 1107.75 2302 1112.67 2302 1118.75Z" stroke="#4472C4" stroke-width="3.4375" stroke-linejoin="round" stroke-miterlimit="10" fill="#4472C4"/></g><g clip-path="url(#clip6)"><path d="M0 0 2115 557" stroke="#4472C4" stroke-width="6.875" stroke-linecap="round" stroke-linejoin="round" stroke-miterlimit="10" stroke-dasharray="0 13.75" fill="none" fill-rule="evenodd" transform="matrix(1 0 0 -1 2290.5 1018.5)"/></g><g clip-path="url(#clip7)"><text fill="#595959" font-family="Calibri,Calibri_MSFontService,sans-serif" font-weight="400" font-size="50" transform="matrix(1 0 0 1 3387.08 880)">y = 0,0014x + 7,0373</text></g><g clip-path="url(#clip8)"><text fill="#595959" font-family="Calibri,Calibri_MSFontService,sans-serif" font-weight="400" font-size="50" transform="matrix(1 0 0 1 3481.36 942)">R² = 0,6111</text></g><g clip-path="url(#clip9)"><text fill="#595959" font-family="Calibri,Calibri_MSFontService,sans-serif" font-weight="400" font-size="50" transform="matrix(1 0 0 1 2160.03 1561)">0</text></g><g clip-path="url(#clip10)"><text fill="#595959" font-family="Calibri,Calibri_MSFontService,sans-serif" font-weight="400" font-size="50" transform="matrix(1 0 0 1 2160.03 1416)">2</text></g><g clip-path="url(#clip11)"><text fill="#595959" font-family="Calibri,Calibri_MSFontService,sans-serif" font-weight="400" font-size="50" transform="matrix(1 0 0 1 2160.03 1270)">4</text></g><g clip-path="url(#clip12)"><text fill="#595959" font-family="Calibri,Calibri_MSFontService,sans-serif" font-weight="400" font-size="50" transform="matrix(1 0 0 1 2160.03 1124)">6</text></g><g clip-path="url(#clip13)"><text fill="#595959" font-family="Calibri,Calibri_MSFontService,sans-serif" font-weight="400" font-size="50" transform="matrix(1 0 0 1 2160.03 978)">8</text></g><g clip-path="url(#clip14)"><text fill="#595959" font-family="Calibri,Calibri_MSFontService,sans-serif" font-weight="400" font-size="50" transform="matrix(1 0 0 1 2134.48 832)">10</text></g><g clip-path="url(#clip15)"><text fill="#595959" font-family="Calibri,Calibri_MSFontService,sans-serif" font-weight="400" font-size="50" transform="matrix(1 0 0 1 2134.48 686)">12</text></g><g clip-path="url(#clip16)"><text fill="#595959" font-family="Calibri,Calibri_MSFontService,sans-serif" font-weight="400" font-size="50" transform="matrix(1 0 0 1 2134.48 540)">14</text></g><g clip-path="url(#clip17)"><text fill="#595959" font-family="Calibri,Calibri_MSFontService,sans-serif" font-weight="400" font-size="50" transform="matrix(1 0 0 1 2134.48 394)">16</text></g><g clip-path="url(#clip18)"><text fill="#595959" font-family="Calibri,Calibri_MSFontService,sans-serif" font-weight="400" font-size="50" transform="matrix(1 0 0 1 2219.59 1627)">0</text></g><g clip-path="url(#clip19)"><text fill="#595959" font-family="Calibri,Calibri_MSFontService,sans-serif" font-weight="400" font-size="50" transform="matrix(1 0 0 1 2559.93 1627)">1000</text></g><g clip-path="url(#clip20)"><text fill="#595959" font-family="Calibri,Calibri_MSFontService,sans-serif" font-weight="400" font-size="50" transform="matrix(1 0 0 1 2938.61 1627)">2000</text></g><g clip-path="url(#clip21)"><text fill="#595959" font-family="Calibri,Calibri_MSFontService,sans-serif" font-weight="400" font-size="50" transform="matrix(1 0 0 1 3317.28 1627)">3000</text></g><g clip-path="url(#clip22)"><text fill="#595959" font-family="Calibri,Calibri_MSFontService,sans-serif" font-weight="400" font-size="50" transform="matrix(1 0 0 1 3695.95 1627)">4000</text></g><g clip-path="url(#clip23)"><text fill="#595959" font-family="Calibri,Calibri_MSFontService,sans-serif" font-weight="400" font-size="50" transform="matrix(1 0 0 1 4074.63 1627)">5000</text></g><g clip-path="url(#clip24)"><text fill="#595959" font-family="Calibri,Calibri_MSFontService,sans-serif" font-weight="400" font-size="50" transform="matrix(1 0 0 1 4453.3 1627)">6000</text></g><g clip-path="url(#clip25)"><text fill="#595959" font-family="Calibri,Calibri_MSFontService,sans-serif" font-weight="400" font-size="46" transform="matrix(6.12323e-17 -1 1 6.12323e-17 2108.79 1377)">Average Housing price as multiple of income</text></g><g clip-path="url(#clip26)"><text fill="#595959" font-family="Calibri,Calibri_MSFontService,sans-serif" font-weight="400" font-size="46" transform="matrix(1 0 0 1 3193.93 1698)">population density</text></g><g clip-path="url(#clip27)"><text fill="#595959" font-family="Calibri,Calibri_MSFontService,sans-serif" font-weight="400" font-size="64" transform="matrix(1 0 0 1 2783.1 302)">Housing </text></g><g clip-path="url(#clip28)"><text fill="#595959" font-family="Calibri,Calibri_MSFontService,sans-serif" font-weight="400" font-size="64" transform="matrix(1 0 0 1 3008.9 302)">-</text></g><g clip-path="url(#clip29)"><text fill="#595959" font-family="Calibri,Calibri_MSFontService,sans-serif" font-weight="400" font-size="64" transform="matrix(1 0 0 1 3043.04 302)">population density correlation</text></g><rect x="2007.5" y="206.5" width="2599" height="1562" stroke="#D9D9D9" stroke-width="3.4375" stroke-linejoin="round" stroke-miterlimit="10" fill="none"/></g></svg>