<svg width="2601" height="1528" xmlns="http://www.w3.org/2000/svg" xmlns:xlink="http://www.w3.org/1999/xlink" xml:space="preserve" overflow="hidden"><defs><clipPath id="clip0"><rect x="2426" y="767" width="2601" height="1528"/></clipPath><clipPath id="clip1"><rect x="2426" y="767" width="2599" height="1525"/></clipPath><clipPath id="clip2"><rect x="2426" y="767" width="2599" height="1525"/></clipPath><clipPath id="clip3"><rect x="2426" y="767" width="2599" height="1525"/></clipPath><clipPath id="clip4"><rect x="2426" y="767" width="2599" height="1525"/></clipPath><clipPath id="clip5"><rect x="2426" y="767" width="2599" height="1525"/></clipPath><clipPath id="clip6"><rect x="2682" y="941" width="2241" height="1125"/></clipPath><clipPath id="clip7"><rect x="2426" y="767" width="2599" height="1525"/></clipPath><clipPath id="clip8"><rect x="2426" y="767" width="2599" height="1525"/></clipPath><clipPath id="clip9"><rect x="2426" y="767" width="2599" height="1525"/></clipPath><clipPath id="clip10"><rect x="2426" y="767" width="2599" height="1525"/></clipPath><clipPath id="clip11"><rect x="2426" y="767" width="2599" height="1525"/></clipPath><clipPath id="clip12"><rect x="2426" y="767" width="2599" height="1525"/></clipPath><clipPath id="clip13"><rect x="2426" y="767" width="2599" height="1525"/></clipPath><clipPath id="clip14"><rect x="2426" y="767" width="2599" height="1525"/></clipPath><clipPath id="clip15"><rect x="2426" y="767" width="2599" height="1525"/></clipPath><clipPath id="clip16"><rect x="2426" y="767" width="2599" height="1525"/></clipPath><clipPath id="clip17"><rect x="2426" y="767" width="2599" height="1525"/></clipPath><clipPath id="clip18"><rect x="2426" y="767" width="2599" height="1525"/></clipPath><clipPath id="clip19"><rect x="2426" y="767" width="2599" height="1525"/></clipPath><clipPath id="clip20"><rect x="2426" y="767" width="2599" height="1525"/></clipPath><clipPath id="clip21"><rect x="2426" y="767" width="2599" height="1525"/></clipPath><clipPath id="clip22"><rect x="2426" y="767" width="2599" height="1525"/></clipPath><clipPath id="clip23"><rect x="2426" y="767" width="2599" height="1525"/></clipPath><clipPath id="clip24"><rect x="2426" y="767" width="2599" height="1525"/></clipPath><clipPath id="clip25"><rect x="2426" y="767" width="2599" height="1525"/></clipPath><clipPath id="clip26"><rect x="2426" y="767" width="2599" height="1525"/></clipPath><clipPath id="clip27"><rect x="2426" y="767" width="2599" height="1525"/></clipPath><clipPath id="clip28"><rect x="2426" y="767" width="2599" height="1525"/></clipPath><clipPath id="clip29"><rect x="2426" y="767" width="2599" height="1525"/></clipPath><clipPath id="clip30"><rect x="2426" y="767" width="2599" height="1525"/></clipPath></defs><g clip-path="url(#clip0)" transform="translate(-2426 -767)"><rect x="2427" y="768" width="2598" height="1525" fill="#FFFFFF"/><g clip-path="url(#clip1)"><path d="M2682.5 1941.56 4923.5 1941.56M2682.5 1816.56 4923.5 1816.56M2682.5 1691.56 4923.5 1691.56M2682.5 1566.55 4923.5 1566.55M2682.5 1441.55 4923.5 1441.55M2682.5 1316.54 4923.5 1316.54M2682.5 1191.54 4923.5 1191.54M2682.5 1066.54 4923.5 1066.54M2682.5 941.5 4923.5 941.5" stroke="#D9D9D9" stroke-width="3.4375" stroke-linejoin="round" stroke-miterlimit="10" fill="none"/></g><g clip-path="url(#clip2)"><path d="M3056.6 941.5 3056.6 2066.5M3429.61 941.5 3429.61 2066.5M3803.62 941.5 3803.62 2066.5M4176.64 941.5 4176.64 2066.5M4550.65 941.5 4550.65 2066.5M4923.5 941.5 4923.5 2066.5" stroke="#D9D9D9" stroke-width="3.4375" stroke-linejoin="round" stroke-miterlimit="10" fill="none"/></g><g clip-path="url(#clip3)"><path d="M0 0 0.000360892 1125" stroke="#BFBFBF" stroke-width="3.4375" stroke-linejoin="round" stroke-miterlimit="10" fill="none" fill-rule="evenodd" transform="matrix(1 0 0 -1 2682.5 2066.5)"/></g><g clip-path="url(#clip4)"><path d="M2682.5 2066.5 4923.5 2066.5" stroke="#BFBFBF" stroke-width="3.4375" stroke-linejoin="round" stroke-miterlimit="10" fill="none" fill-rule="evenodd"/></g><g clip-path="url(#clip5)"><path d="M2810.37 1347.49C2810.37 1353.57 2805.45 1358.49 2799.37 1358.49 2793.3 1358.49 2788.38 1353.57 2788.38 1347.49 2788.38 1341.42 2793.3 1336.49 2799.37 1336.49 2805.45 1336.49 2810.37 1341.42 2810.37 1347.49Z" stroke="#4472C4" stroke-width="3.4375" stroke-linejoin="round" stroke-miterlimit="10" fill="#4472C4"/><path d="M2888.37 1313.49C2888.37 1319.57 2883.45 1324.49 2877.37 1324.49 2871.3 1324.49 2866.38 1319.57 2866.38 1313.49 2866.38 1307.42 2871.3 1302.49 2877.37 1302.49 2883.45 1302.49 2888.37 1307.42 2888.37 1313.49Z" stroke="#4472C4" stroke-width="3.4375" stroke-linejoin="round" stroke-miterlimit="10" fill="#4472C4"/><path d="M2827.37 1342.49C2827.37 1348.57 2822.45 1353.49 2816.38 1353.49 2810.3 1353.49 2805.38 1348.57 2805.38 1342.49 2805.38 1336.42 2810.3 1331.49 2816.38 1331.49 2822.45 1331.49 2827.37 1336.42 2827.37 1342.49Z" stroke="#4472C4" stroke-width="3.4375" stroke-linejoin="round" stroke-miterlimit="10" fill="#4472C4"/><path d="M2810.37 1323.49C2810.37 1329.57 2805.45 1334.49 2799.37 1334.49 2793.3 1334.49 2788.38 1329.57 2788.38 1323.49 2788.38 1317.42 2793.3 1312.49 2799.37 1312.49 2805.45 1312.49 2810.37 1317.42 2810.37 1323.49Z" stroke="#4472C4" stroke-width="3.4375" stroke-linejoin="round" stroke-miterlimit="10" fill="#4472C4"/><path d="M2865.37 1294.49C2865.37 1300.57 2860.45 1305.49 2854.37 1305.49 2848.3 1305.49 2843.38 1300.57 2843.38 1294.49 2843.38 1288.42 2848.3 1283.49 2854.37 1283.49 2860.45 1283.49 2865.37 1288.42 2865.37 1294.49Z" stroke="#4472C4" stroke-width="3.4375" stroke-linejoin="round" stroke-miterlimit="10" fill="#4472C4"/><path d="M2816.37 1275.49C2816.37 1281.57 2811.45 1286.49 2805.38 1286.49 2799.3 1286.49 2794.38 1281.57 2794.38 1275.49 2794.38 1269.42 2799.3 1264.49 2805.38 1264.49 2811.45 1264.49 2816.37 1269.42 2816.37 1275.49Z" stroke="#4472C4" stroke-width="3.4375" stroke-linejoin="round" stroke-miterlimit="10" fill="#4472C4"/><path d="M4836.37 1060.49C4836.37 1066.57 4831.45 1071.49 4825.38 1071.49 4819.3 1071.49 4814.38 1066.57 4814.38 1060.49 4814.38 1054.42 4819.3 1049.49 4825.38 1049.49 4831.45 1049.49 4836.37 1054.42 4836.37 1060.49Z" stroke="#4472C4" stroke-width="3.4375" stroke-linejoin="round" stroke-miterlimit="10" fill="#4472C4"/><path d="M2874.37 1235.49C2874.37 1241.57 2869.45 1246.49 2863.37 1246.49 2857.3 1246.49 2852.38 1241.57 2852.38 1235.49 2852.38 1229.42 2857.3 1224.49 2863.37 1224.49 2869.45 1224.49 2874.37 1229.42 2874.37 1235.49Z" stroke="#4472C4" stroke-width="3.4375" stroke-linejoin="round" stroke-miterlimit="10" fill="#4472C4"/><path d="M2782.37 1302.49C2782.37 1308.57 2777.45 1313.49 2771.37 1313.49 2765.3 1313.49 2760.38 1308.57 2760.38 1302.49 2760.38 1296.42 2765.3 1291.49 2771.37 1291.49 2777.45 1291.49 2782.37 1296.42 2782.37 1302.49Z" stroke="#4472C4" stroke-width="3.4375" stroke-linejoin="round" stroke-miterlimit="10" fill="#4472C4"/><path d="M2750.37 1318.49C2750.37 1324.57 2745.45 1329.49 2739.38 1329.49 2733.3 1329.49 2728.38 1324.57 2728.38 1318.49 2728.38 1312.42 2733.3 1307.49 2739.38 1307.49 2745.45 1307.49 2750.37 1312.42 2750.37 1318.49Z" stroke="#4472C4" stroke-width="3.4375" stroke-linejoin="round" stroke-miterlimit="10" fill="#4472C4"/><path d="M2720.37 1265.49C2720.37 1271.57 2715.45 1276.49 2709.37 1276.49 2703.3 1276.49 2698.38 1271.57 2698.38 1265.49 2698.38 1259.42 2703.3 1254.49 2709.37 1254.49 2715.45 1254.49 2720.37 1259.42 2720.37 1265.49Z" stroke="#4472C4" stroke-width="3.4375" stroke-linejoin="round" stroke-miterlimit="10" fill="#4472C4"/><path d="M2744.37 1326.49C2744.37 1332.57 2739.45 1337.49 2733.37 1337.49 2727.3 1337.49 2722.38 1332.57 2722.38 1326.49 2722.38 1320.42 2727.3 1315.49 2733.37 1315.49 2739.45 1315.49 2744.37 1320.42 2744.37 1326.49Z" stroke="#4472C4" stroke-width="3.4375" stroke-linejoin="round" stroke-miterlimit="10" fill="#4472C4"/></g><g clip-path="url(#clip6)"><path d="M0 0 2116 254" stroke="#4472C4" stroke-width="6.875" stroke-linecap="round" stroke-linejoin="round" stroke-miterlimit="10" stroke-dasharray="0 13.75" fill="none" fill-rule="evenodd" transform="matrix(1 0 0 -1 2709.5 1314.5)"/></g><g clip-path="url(#clip7)"><text fill="#595959" font-family="Calibri,Calibri_MSFontService,sans-serif" font-weight="400" font-size="50" transform="matrix(1 0 0 1 3829.37 1304)">y = 0,0359x + 598,74</text></g><g clip-path="url(#clip8)"><text fill="#595959" font-family="Calibri,Calibri_MSFontService,sans-serif" font-weight="400" font-size="50" transform="matrix(1 0 0 1 3923.65 1366)">R² = 0,8278</text></g><g clip-path="url(#clip9)"><text fill="#595959" font-family="Calibri,Calibri_MSFontService,sans-serif" font-weight="400" font-size="50" transform="matrix(1 0 0 1 2610.58 2081)">0</text></g><g clip-path="url(#clip10)"><text fill="#595959" font-family="Calibri,Calibri_MSFontService,sans-serif" font-weight="400" font-size="50" transform="matrix(1 0 0 1 2559.47 1956)">100</text></g><g clip-path="url(#clip11)"><text fill="#595959" font-family="Calibri,Calibri_MSFontService,sans-serif" font-weight="400" font-size="50" transform="matrix(1 0 0 1 2559.47 1831)">200</text></g><g clip-path="url(#clip12)"><text fill="#595959" font-family="Calibri,Calibri_MSFontService,sans-serif" font-weight="400" font-size="50" transform="matrix(1 0 0 1 2559.47 1706)">300</text></g><g clip-path="url(#clip13)"><text fill="#595959" font-family="Calibri,Calibri_MSFontService,sans-serif" font-weight="400" font-size="50" transform="matrix(1 0 0 1 2559.47 1581)">400</text></g><g clip-path="url(#clip14)"><text fill="#595959" font-family="Calibri,Calibri_MSFontService,sans-serif" font-weight="400" font-size="50" transform="matrix(1 0 0 1 2559.47 1456)">500</text></g><g clip-path="url(#clip15)"><text fill="#595959" font-family="Calibri,Calibri_MSFontService,sans-serif" font-weight="400" font-size="50" transform="matrix(1 0 0 1 2559.47 1331)">600</text></g><g clip-path="url(#clip16)"><text fill="#595959" font-family="Calibri,Calibri_MSFontService,sans-serif" font-weight="400" font-size="50" transform="matrix(1 0 0 1 2559.47 1206)">700</text></g><g clip-path="url(#clip17)"><text fill="#595959" font-family="Calibri,Calibri_MSFontService,sans-serif" font-weight="400" font-size="50" transform="matrix(1 0 0 1 2559.47 1081)">800</text></g><g clip-path="url(#clip18)"><text fill="#595959" font-family="Calibri,Calibri_MSFontService,sans-serif" font-weight="400" font-size="50" transform="matrix(1 0 0 1 2559.47 956)">900</text></g><g clip-path="url(#clip19)"><text fill="#595959" font-family="Calibri,Calibri_MSFontService,sans-serif" font-weight="400" font-size="50" transform="matrix(1 0 0 1 2670.13 2147)">0</text></g><g clip-path="url(#clip20)"><text fill="#595959" font-family="Calibri,Calibri_MSFontService,sans-serif" font-weight="400" font-size="50" transform="matrix(1 0 0 1 3005.28 2147)">1000</text></g><g clip-path="url(#clip21)"><text fill="#595959" font-family="Calibri,Calibri_MSFontService,sans-serif" font-weight="400" font-size="50" transform="matrix(1 0 0 1 3378.76 2147)">2000</text></g><g clip-path="url(#clip22)"><text fill="#595959" font-family="Calibri,Calibri_MSFontService,sans-serif" font-weight="400" font-size="50" transform="matrix(1 0 0 1 3752.24 2147)">3000</text></g><g clip-path="url(#clip23)"><text fill="#595959" font-family="Calibri,Calibri_MSFontService,sans-serif" font-weight="400" font-size="50" transform="matrix(1 0 0 1 4125.72 2147)">4000</text></g><g clip-path="url(#clip24)"><text fill="#595959" font-family="Calibri,Calibri_MSFontService,sans-serif" font-weight="400" font-size="50" transform="matrix(1 0 0 1 4499.2 2147)">5000</text></g><g clip-path="url(#clip25)"><text fill="#595959" font-family="Calibri,Calibri_MSFontService,sans-serif" font-weight="400" font-size="50" transform="matrix(1 0 0 1 4872.67 2147)">6000</text></g><g clip-path="url(#clip26)"><text fill="#595959" font-family="Calibri,Calibri_MSFontService,sans-serif" font-weight="400" font-size="50" transform="matrix(6.12323e-17 -1 1 6.12323e-17 2532.18 1636)">weekly wage</text></g><g clip-path="url(#clip27)"><text fill="#595959" font-family="Calibri,Calibri_MSFontService,sans-serif" font-weight="400" font-size="50" transform="matrix(1 0 0 1 3611.45 2222)">population density</text></g><g clip-path="url(#clip28)"><text fill="#595959" font-family="Calibri,Calibri_MSFontService,sans-serif" font-weight="400" font-size="64" transform="matrix(1 0 0 1 3234.53 863)">Wage </text></g><g clip-path="url(#clip29)"><text fill="#595959" font-family="Calibri,Calibri_MSFontService,sans-serif" font-weight="400" font-size="64" transform="matrix(1 0 0 1 3396.23 863)">-</text></g><g clip-path="url(#clip30)"><text fill="#595959" font-family="Calibri,Calibri_MSFontService,sans-serif" font-weight="400" font-size="64" transform="matrix(1 0 0 1 3430.37 863)">population density correlation</text></g><rect x="2427.5" y="768.5" width="2598" height="1525" stroke="#D9D9D9" stroke-width="3.4375" stroke-linejoin="round" stroke-miterlimit="10" fill="none"/></g></svg>